<svg width="363" height="129" viewBox="0 0 363 129" fill="none" xmlns="http://www.w3.org/2000/svg">
<line x1="227.268" y1="127.275" x2="281.857" y2="32.7238" stroke="black" stroke-width="4"/>
<path d="M203.425 18.3379V22H189.758V0.862305H194.182V18.3379H203.425ZM212.653 22.3369C207.907 22.3369 204.875 19.29 204.875 14.1338C204.875 9.05078 207.951 5.95996 212.653 5.95996C217.355 5.95996 220.432 9.03613 220.432 14.1338C220.432 19.3047 217.399 22.3369 212.653 22.3369ZM212.653 19.0703C214.748 19.0703 216.081 17.2979 216.081 14.1484C216.081 11.0283 214.733 9.22656 212.653 9.22656C210.573 9.22656 209.211 11.0283 209.211 14.1484C209.211 17.2979 210.544 19.0703 212.653 19.0703ZM222.644 22V6.29688H226.774V9.12402H226.862C227.419 7.13184 228.752 6.04785 230.598 6.04785C231.096 6.04785 231.521 6.12109 231.813 6.20898V9.97363C231.462 9.82715 230.876 9.72461 230.261 9.72461C228.151 9.72461 226.921 11.0137 226.921 13.2256V22H222.644ZM240.09 9.12402C238.215 9.12402 236.867 10.5449 236.721 12.5078H243.386C243.298 10.501 241.994 9.12402 240.09 9.12402ZM243.444 17.1953H247.37C246.901 20.2715 244.089 22.3369 240.207 22.3369C235.373 22.3369 232.473 19.2461 232.473 14.2217C232.473 9.21191 235.402 5.95996 240.046 5.95996C244.616 5.95996 247.502 9.05078 247.502 13.8262V15.1299H236.677V15.3936C236.677 17.6348 238.098 19.1729 240.28 19.1729C241.848 19.1729 243.049 18.3965 243.444 17.1953ZM249.714 22V6.29688H253.845V9.13867H253.933C254.592 7.24902 256.276 6.00391 258.415 6.00391C260.686 6.00391 262.268 7.17578 262.795 9.22656H262.883C263.586 7.24902 265.461 6.00391 267.761 6.00391C270.837 6.00391 272.902 8.11328 272.902 11.2773V22H268.625V12.3467C268.625 10.5303 267.717 9.53418 266.062 9.53418C264.436 9.53418 263.366 10.7207 263.366 12.4639V22H259.25V12.2148C259.25 10.5303 258.298 9.53418 256.716 9.53418C255.09 9.53418 253.991 10.7646 253.991 12.5225V22H249.714ZM281.633 22V6.29688H285.91V22H281.633ZM283.771 4.56836C282.482 4.56836 281.486 3.58691 281.486 2.35645C281.486 1.11133 282.482 0.144531 283.771 0.144531C285.061 0.144531 286.057 1.11133 286.057 2.35645C286.057 3.58691 285.061 4.56836 283.771 4.56836ZM297.937 6.04785C301.921 6.04785 304.367 9.08008 304.367 14.1484C304.367 19.2021 301.936 22.249 298.01 22.249C295.725 22.249 293.967 21.1357 293.132 19.3633H293.044V27.127H288.767V6.29688H292.985V9.03613H293.073C293.923 7.19043 295.666 6.04785 297.937 6.04785ZM296.501 18.8066C298.64 18.8066 299.987 17.0049 299.987 14.1484C299.987 11.3066 298.64 9.47559 296.501 9.47559C294.406 9.47559 293.029 11.3359 293.029 14.1484C293.029 16.9902 294.406 18.8066 296.501 18.8066ZM306.315 10.9111C306.315 7.92285 308.908 5.95996 312.937 5.95996C316.877 5.95996 319.44 7.95215 319.499 10.999H315.559C315.471 9.73926 314.46 8.96289 312.878 8.96289C311.398 8.96289 310.432 9.63672 310.432 10.6475C310.432 11.4238 311.105 11.9512 312.482 12.2734L315.485 12.918C318.635 13.6211 319.909 14.8662 319.909 17.21C319.909 20.3008 317.067 22.3369 312.922 22.3369C308.732 22.3369 306.154 20.3154 305.92 17.2539H310.095C310.3 18.5723 311.34 19.334 313.039 19.334C314.665 19.334 315.646 18.6895 315.646 17.6641C315.646 16.873 315.119 16.4336 313.713 16.0967L310.812 15.4521C307.839 14.7783 306.315 13.2256 306.315 10.9111ZM336.55 6.29688V22H332.419V19.1729H332.331C331.555 21.1504 330.002 22.293 327.629 22.293C324.23 22.293 321.975 20.0811 321.975 16.4189V6.29688H326.252V15.5254C326.252 17.6201 327.292 18.7334 329.182 18.7334C331.086 18.7334 332.272 17.3711 332.272 15.291V6.29688H336.55ZM339.333 22V6.29688H343.464V9.13867H343.552C344.211 7.24902 345.896 6.00391 348.034 6.00391C350.305 6.00391 351.887 7.17578 352.414 9.22656H352.502C353.205 7.24902 355.08 6.00391 357.38 6.00391C360.456 6.00391 362.521 8.11328 362.521 11.2773V22H358.244V12.3467C358.244 10.5303 357.336 9.53418 355.681 9.53418C354.055 9.53418 352.985 10.7207 352.985 12.4639V22H348.869V12.2148C348.869 10.5303 347.917 9.53418 346.335 9.53418C344.709 9.53418 343.61 10.7646 343.61 12.5225V22H339.333Z" fill="black"/>
<line y1="127" x2="229" y2="127" stroke="#FF6600" stroke-width="4"/>
</svg>
