<svg width="383" height="125" viewBox="0 0 383 125" fill="none" xmlns="http://www.w3.org/2000/svg">
<line x1="247.857" y1="95.5508" x2="193.268" y2="0.999213" stroke="black" stroke-width="4"/>
<path d="M223.425 115.338V119H209.758V97.8623H214.182V115.338H223.425ZM232.653 119.337C227.907 119.337 224.875 116.29 224.875 111.134C224.875 106.051 227.951 102.96 232.653 102.96C237.355 102.96 240.432 106.036 240.432 111.134C240.432 116.305 237.399 119.337 232.653 119.337ZM232.653 116.07C234.748 116.07 236.081 114.298 236.081 111.148C236.081 108.028 234.733 106.227 232.653 106.227C230.573 106.227 229.211 108.028 229.211 111.148C229.211 114.298 230.544 116.07 232.653 116.07ZM242.644 119V103.297H246.774V106.124H246.862C247.419 104.132 248.752 103.048 250.598 103.048C251.096 103.048 251.521 103.121 251.813 103.209V106.974C251.462 106.827 250.876 106.725 250.261 106.725C248.151 106.725 246.921 108.014 246.921 110.226V119H242.644ZM260.09 106.124C258.215 106.124 256.867 107.545 256.721 109.508H263.386C263.298 107.501 261.994 106.124 260.09 106.124ZM263.444 114.195H267.37C266.901 117.271 264.089 119.337 260.207 119.337C255.373 119.337 252.473 116.246 252.473 111.222C252.473 106.212 255.402 102.96 260.046 102.96C264.616 102.96 267.502 106.051 267.502 110.826V112.13H256.677V112.394C256.677 114.635 258.098 116.173 260.28 116.173C261.848 116.173 263.049 115.396 263.444 114.195ZM269.714 119V103.297H273.845V106.139H273.933C274.592 104.249 276.276 103.004 278.415 103.004C280.686 103.004 282.268 104.176 282.795 106.227H282.883C283.586 104.249 285.461 103.004 287.761 103.004C290.837 103.004 292.902 105.113 292.902 108.277V119H288.625V109.347C288.625 107.53 287.717 106.534 286.062 106.534C284.436 106.534 283.366 107.721 283.366 109.464V119H279.25V109.215C279.25 107.53 278.298 106.534 276.716 106.534C275.09 106.534 273.991 107.765 273.991 109.522V119H269.714ZM301.633 119V103.297H305.91V119H301.633ZM303.771 101.568C302.482 101.568 301.486 100.587 301.486 99.3564C301.486 98.1113 302.482 97.1445 303.771 97.1445C305.061 97.1445 306.057 98.1113 306.057 99.3564C306.057 100.587 305.061 101.568 303.771 101.568ZM317.937 103.048C321.921 103.048 324.367 106.08 324.367 111.148C324.367 116.202 321.936 119.249 318.01 119.249C315.725 119.249 313.967 118.136 313.132 116.363H313.044V124.127H308.767V103.297H312.985V106.036H313.073C313.923 104.19 315.666 103.048 317.937 103.048ZM316.501 115.807C318.64 115.807 319.987 114.005 319.987 111.148C319.987 108.307 318.64 106.476 316.501 106.476C314.406 106.476 313.029 108.336 313.029 111.148C313.029 113.99 314.406 115.807 316.501 115.807ZM326.315 107.911C326.315 104.923 328.908 102.96 332.937 102.96C336.877 102.96 339.44 104.952 339.499 107.999H335.559C335.471 106.739 334.46 105.963 332.878 105.963C331.398 105.963 330.432 106.637 330.432 107.647C330.432 108.424 331.105 108.951 332.482 109.273L335.485 109.918C338.635 110.621 339.909 111.866 339.909 114.21C339.909 117.301 337.067 119.337 332.922 119.337C328.732 119.337 326.154 117.315 325.92 114.254H330.095C330.3 115.572 331.34 116.334 333.039 116.334C334.665 116.334 335.646 115.689 335.646 114.664C335.646 113.873 335.119 113.434 333.713 113.097L330.812 112.452C327.839 111.778 326.315 110.226 326.315 107.911ZM356.55 103.297V119H352.419V116.173H352.331C351.555 118.15 350.002 119.293 347.629 119.293C344.23 119.293 341.975 117.081 341.975 113.419V103.297H346.252V112.525C346.252 114.62 347.292 115.733 349.182 115.733C351.086 115.733 352.272 114.371 352.272 112.291V103.297H356.55ZM359.333 119V103.297H363.464V106.139H363.552C364.211 104.249 365.896 103.004 368.034 103.004C370.305 103.004 371.887 104.176 372.414 106.227H372.502C373.205 104.249 375.08 103.004 377.38 103.004C380.456 103.004 382.521 105.113 382.521 108.277V119H378.244V109.347C378.244 107.53 377.336 106.534 375.681 106.534C374.055 106.534 372.985 107.721 372.985 109.464V119H368.869V109.215C368.869 107.53 367.917 106.534 366.335 106.534C364.709 106.534 363.61 107.765 363.61 109.522V119H359.333Z" fill="black"/>
<line y1="2" x2="195" y2="2" stroke="#FF6600" stroke-width="4"/>
</svg>
