<svg width="434" height="28" viewBox="0 0 434 28" fill="none" xmlns="http://www.w3.org/2000/svg">
<path d="M14.4248 18.3379V22H0.757812V0.862305H5.18164V18.3379H14.4248ZM23.6533 22.3369C18.9072 22.3369 15.875 19.29 15.875 14.1338C15.875 9.05078 18.9512 5.95996 23.6533 5.95996C28.3555 5.95996 31.4316 9.03613 31.4316 14.1338C31.4316 19.3047 28.3994 22.3369 23.6533 22.3369ZM23.6533 19.0703C25.748 19.0703 27.0811 17.2979 27.0811 14.1484C27.0811 11.0283 25.7334 9.22656 23.6533 9.22656C21.5732 9.22656 20.2109 11.0283 20.2109 14.1484C20.2109 17.2979 21.5439 19.0703 23.6533 19.0703ZM33.6436 22V6.29688H37.7744V9.12402H37.8623C38.4189 7.13184 39.752 6.04785 41.5977 6.04785C42.0957 6.04785 42.5205 6.12109 42.8135 6.20898V9.97363C42.4619 9.82715 41.876 9.72461 41.2607 9.72461C39.1514 9.72461 37.9209 11.0137 37.9209 13.2256V22H33.6436ZM51.0898 9.12402C49.2148 9.12402 47.8672 10.5449 47.7207 12.5078H54.3857C54.2979 10.501 52.9941 9.12402 51.0898 9.12402ZM54.4443 17.1953H58.3701C57.9014 20.2715 55.0889 22.3369 51.207 22.3369C46.373 22.3369 43.4727 19.2461 43.4727 14.2217C43.4727 9.21191 46.4023 5.95996 51.0459 5.95996C55.6162 5.95996 58.502 9.05078 58.502 13.8262V15.1299H47.6768V15.3936C47.6768 17.6348 49.0977 19.1729 51.2803 19.1729C52.8477 19.1729 54.0488 18.3965 54.4443 17.1953ZM60.7139 22V6.29688H64.8447V9.13867H64.9326C65.5918 7.24902 67.2764 6.00391 69.415 6.00391C71.6855 6.00391 73.2676 7.17578 73.7949 9.22656H73.8828C74.5859 7.24902 76.4609 6.00391 78.7607 6.00391C81.8369 6.00391 83.9023 8.11328 83.9023 11.2773V22H79.625V12.3467C79.625 10.5303 78.7168 9.53418 77.0615 9.53418C75.4355 9.53418 74.3662 10.7207 74.3662 12.4639V22H70.25V12.2148C70.25 10.5303 69.2979 9.53418 67.7158 9.53418C66.0898 9.53418 64.9912 10.7646 64.9912 12.5225V22H60.7139ZM92.6328 22V6.29688H96.9102V22H92.6328ZM94.7715 4.56836C93.4824 4.56836 92.4863 3.58691 92.4863 2.35645C92.4863 1.11133 93.4824 0.144531 94.7715 0.144531C96.0605 0.144531 97.0566 1.11133 97.0566 2.35645C97.0566 3.58691 96.0605 4.56836 94.7715 4.56836ZM108.937 6.04785C112.921 6.04785 115.367 9.08008 115.367 14.1484C115.367 19.2021 112.936 22.249 109.01 22.249C106.725 22.249 104.967 21.1357 104.132 19.3633H104.044V27.127H99.7666V6.29688H103.985V9.03613H104.073C104.923 7.19043 106.666 6.04785 108.937 6.04785ZM107.501 18.8066C109.64 18.8066 110.987 17.0049 110.987 14.1484C110.987 11.3066 109.64 9.47559 107.501 9.47559C105.406 9.47559 104.029 11.3359 104.029 14.1484C104.029 16.9902 105.406 18.8066 107.501 18.8066ZM117.315 10.9111C117.315 7.92285 119.908 5.95996 123.937 5.95996C127.877 5.95996 130.44 7.95215 130.499 10.999H126.559C126.471 9.73926 125.46 8.96289 123.878 8.96289C122.398 8.96289 121.432 9.63672 121.432 10.6475C121.432 11.4238 122.105 11.9512 123.482 12.2734L126.485 12.918C129.635 13.6211 130.909 14.8662 130.909 17.21C130.909 20.3008 128.067 22.3369 123.922 22.3369C119.732 22.3369 117.154 20.3154 116.92 17.2539H121.095C121.3 18.5723 122.34 19.334 124.039 19.334C125.665 19.334 126.646 18.6895 126.646 17.6641C126.646 16.873 126.119 16.4336 124.713 16.0967L121.812 15.4521C118.839 14.7783 117.315 13.2256 117.315 10.9111ZM147.55 6.29688V22H143.419V19.1729H143.331C142.555 21.1504 141.002 22.293 138.629 22.293C135.23 22.293 132.975 20.0811 132.975 16.4189V6.29688H137.252V15.5254C137.252 17.6201 138.292 18.7334 140.182 18.7334C142.086 18.7334 143.272 17.3711 143.272 15.291V6.29688H147.55ZM150.333 22V6.29688H154.464V9.13867H154.552C155.211 7.24902 156.896 6.00391 159.034 6.00391C161.305 6.00391 162.887 7.17578 163.414 9.22656H163.502C164.205 7.24902 166.08 6.00391 168.38 6.00391C171.456 6.00391 173.521 8.11328 173.521 11.2773V22H169.244V12.3467C169.244 10.5303 168.336 9.53418 166.681 9.53418C165.055 9.53418 163.985 10.7207 163.985 12.4639V22H159.869V12.2148C159.869 10.5303 158.917 9.53418 157.335 9.53418C155.709 9.53418 154.61 10.7646 154.61 12.5225V22H150.333Z" fill="black"/>
<line x1="181.016" y1="14.0001" x2="433.09" y2="16.0001" stroke="#FF6600" stroke-width="4"/>
</svg>
