<svg width="355" height="111" viewBox="0 0 355 111" fill="none" xmlns="http://www.w3.org/2000/svg">
<line x1="109.249" y1="52.0338" x2="136.838" y2="2.03376" stroke="black" stroke-width="4"/>
<path d="M14.4248 101.338V105H0.757812V83.8623H5.18164V101.338H14.4248ZM23.6533 105.337C18.9072 105.337 15.875 102.29 15.875 97.1338C15.875 92.0508 18.9512 88.96 23.6533 88.96C28.3555 88.96 31.4316 92.0361 31.4316 97.1338C31.4316 102.305 28.3994 105.337 23.6533 105.337ZM23.6533 102.07C25.748 102.07 27.0811 100.298 27.0811 97.1484C27.0811 94.0283 25.7334 92.2266 23.6533 92.2266C21.5732 92.2266 20.2109 94.0283 20.2109 97.1484C20.2109 100.298 21.5439 102.07 23.6533 102.07ZM33.6436 105V89.2969H37.7744V92.124H37.8623C38.4189 90.1318 39.752 89.0479 41.5977 89.0479C42.0957 89.0479 42.5205 89.1211 42.8135 89.209V92.9736C42.4619 92.8271 41.876 92.7246 41.2607 92.7246C39.1514 92.7246 37.9209 94.0137 37.9209 96.2256V105H33.6436ZM51.0898 92.124C49.2148 92.124 47.8672 93.5449 47.7207 95.5078H54.3857C54.2979 93.501 52.9941 92.124 51.0898 92.124ZM54.4443 100.195H58.3701C57.9014 103.271 55.0889 105.337 51.207 105.337C46.373 105.337 43.4727 102.246 43.4727 97.2217C43.4727 92.2119 46.4023 88.96 51.0459 88.96C55.6162 88.96 58.502 92.0508 58.502 96.8262V98.1299H47.6768V98.3936C47.6768 100.635 49.0977 102.173 51.2803 102.173C52.8477 102.173 54.0488 101.396 54.4443 100.195ZM60.7139 105V89.2969H64.8447V92.1387H64.9326C65.5918 90.249 67.2764 89.0039 69.415 89.0039C71.6855 89.0039 73.2676 90.1758 73.7949 92.2266H73.8828C74.5859 90.249 76.4609 89.0039 78.7607 89.0039C81.8369 89.0039 83.9023 91.1133 83.9023 94.2773V105H79.625V95.3467C79.625 93.5303 78.7168 92.5342 77.0615 92.5342C75.4355 92.5342 74.3662 93.7207 74.3662 95.4639V105H70.25V95.2148C70.25 93.5303 69.2979 92.5342 67.7158 92.5342C66.0898 92.5342 64.9912 93.7646 64.9912 95.5225V105H60.7139ZM92.6328 105V89.2969H96.9102V105H92.6328ZM94.7715 87.5684C93.4824 87.5684 92.4863 86.5869 92.4863 85.3564C92.4863 84.1113 93.4824 83.1445 94.7715 83.1445C96.0605 83.1445 97.0566 84.1113 97.0566 85.3564C97.0566 86.5869 96.0605 87.5684 94.7715 87.5684ZM108.937 89.0479C112.921 89.0479 115.367 92.0801 115.367 97.1484C115.367 102.202 112.936 105.249 109.01 105.249C106.725 105.249 104.967 104.136 104.132 102.363H104.044V110.127H99.7666V89.2969H103.985V92.0361H104.073C104.923 90.1904 106.666 89.0479 108.937 89.0479ZM107.501 101.807C109.64 101.807 110.987 100.005 110.987 97.1484C110.987 94.3066 109.64 92.4756 107.501 92.4756C105.406 92.4756 104.029 94.3359 104.029 97.1484C104.029 99.9902 105.406 101.807 107.501 101.807ZM117.315 93.9111C117.315 90.9229 119.908 88.96 123.937 88.96C127.877 88.96 130.44 90.9521 130.499 93.999H126.559C126.471 92.7393 125.46 91.9629 123.878 91.9629C122.398 91.9629 121.432 92.6367 121.432 93.6475C121.432 94.4238 122.105 94.9512 123.482 95.2734L126.485 95.918C129.635 96.6211 130.909 97.8662 130.909 100.21C130.909 103.301 128.067 105.337 123.922 105.337C119.732 105.337 117.154 103.315 116.92 100.254H121.095C121.3 101.572 122.34 102.334 124.039 102.334C125.665 102.334 126.646 101.689 126.646 100.664C126.646 99.873 126.119 99.4336 124.713 99.0967L121.812 98.4521C118.839 97.7783 117.315 96.2256 117.315 93.9111ZM147.55 89.2969V105H143.419V102.173H143.331C142.555 104.15 141.002 105.293 138.629 105.293C135.23 105.293 132.975 103.081 132.975 99.4189V89.2969H137.252V98.5254C137.252 100.62 138.292 101.733 140.182 101.733C142.086 101.733 143.272 100.371 143.272 98.291V89.2969H147.55ZM150.333 105V89.2969H154.464V92.1387H154.552C155.211 90.249 156.896 89.0039 159.034 89.0039C161.305 89.0039 162.887 90.1758 163.414 92.2266H163.502C164.205 90.249 166.08 89.0039 168.38 89.0039C171.456 89.0039 173.521 91.1133 173.521 94.2773V105H169.244V95.3467C169.244 93.5303 168.336 92.5342 166.681 92.5342C165.055 92.5342 163.985 93.7207 163.985 95.4639V105H159.869V95.2148C159.869 93.5303 158.917 92.5342 157.335 92.5342C155.709 92.5342 154.61 93.7646 154.61 95.5225V105H150.333Z" fill="black"/>
<line x1="135" y1="2" x2="355" y2="1.99998" stroke="#FF6600" stroke-width="4"/>
</svg>
