<svg width="431" height="83" viewBox="0 0 431 83" fill="none" xmlns="http://www.w3.org/2000/svg">
<path d="M55.77 40.0761L22.1002 65.4647" stroke="#918F8E" stroke-opacity="0.6" stroke-width="3"/>
<path d="M72 28L122.97 64.6333" stroke="#1E1E1E" stroke-width="3"/>
<circle cx="71.2482" cy="28.2481" r="20" transform="rotate(-42.1065 71.2482 28.2481)" fill="black"/>
<circle cx="250.655" cy="64.6541" r="12.5" transform="rotate(-42.1065 250.655 64.6541)" fill="#1E1E1E"/>
<line x1="249.004" y1="64.5" x2="122" y2="64.5" stroke="black" stroke-opacity="0.4" stroke-width="3"/>
<path d="M237.98 64.4453L251.018 64.554" stroke="white" stroke-width="3"/>
<circle cx="175.655" cy="64.6541" r="12.5" transform="rotate(-42.1065 175.655 64.6541)" fill="#FF6600"/>
<path d="M71.1035 28.0742L55.3651 40.3524" stroke="white" stroke-width="3"/>
<path d="M44.7998 47H3.90625V11.9658H18.6035V38.333H44.7998V47ZM121.899 47.7568C113.241 47.7568 106.868 45.9746 102.783 42.4102C99.1699 39.2526 97.3633 34.9557 97.3633 29.5195C97.3633 24.0671 99.1699 19.762 102.783 16.6045C106.868 13.04 113.241 11.2578 121.899 11.2578C126.831 11.2578 130.933 11.8112 134.204 12.918C137.476 14.0247 140.039 15.5384 141.895 17.459C143.766 19.3633 145.044 21.5605 145.728 24.0508H130.005C128.361 21.7884 125.659 20.6572 121.899 20.6572C118.351 20.6572 115.739 21.6745 114.062 23.709C112.728 25.3529 112.061 27.2897 112.061 29.5195C112.061 31.7493 112.728 33.6781 114.062 35.3057C115.739 37.3402 118.351 38.3574 121.899 38.3574C124.764 38.3574 126.912 38.1133 128.345 37.625C129.793 37.1204 130.851 36.4694 131.519 35.6719H125.781V29.5195H145.728V47.0244H139.624L138.379 43.6309C134.489 46.3815 128.996 47.7568 121.899 47.7568Z" fill="black"/>
<path d="M177.71 47H152.588V11.9902H178.247C182.804 11.9902 186.556 12.2018 189.502 12.625C192.448 13.0319 194.718 13.6829 196.313 14.5781C197.909 15.457 198.991 16.5801 199.561 17.9473C200.13 19.3145 200.415 20.9502 200.415 22.8545C200.366 24.3519 199.951 25.597 199.17 26.5898C198.405 27.5664 197.502 28.2988 196.46 28.7871C195.435 29.2591 194.531 29.4951 193.75 29.4951C194.515 29.4951 195.41 29.6497 196.436 29.959C197.461 30.252 198.454 30.6833 199.414 31.2529C200.391 31.8226 201.196 32.5143 201.831 33.3281C202.482 34.1419 202.808 35.0697 202.808 36.1113C202.808 37.4785 202.645 38.7318 202.319 39.8711C202.01 41.0104 201.375 42.0195 200.415 42.8984C199.471 43.7773 198.071 44.526 196.216 45.1445C194.36 45.7467 191.927 46.2106 188.916 46.5361C185.921 46.8454 182.186 47 177.71 47ZM176.88 26.4922C179.028 26.4922 180.688 26.3864 181.86 26.1748C183.049 25.9632 183.87 25.6458 184.326 25.2227C184.782 24.7832 185.01 24.2298 185.01 23.5625C185.01 22.8789 184.782 22.3255 184.326 21.9023C183.87 21.4629 183.049 21.1455 181.86 20.9502C180.688 20.7386 179.028 20.6328 176.88 20.6328H167.285V26.4922H176.88ZM176.88 38.3574C179.077 38.3574 180.859 38.3005 182.227 38.1865C183.594 38.0726 184.595 37.8122 185.229 37.4053C185.864 36.9984 186.182 36.3392 186.182 35.4277C186.182 34.5163 185.864 33.8571 185.229 33.4502C184.595 33.027 183.594 32.7666 182.227 32.6689C180.859 32.555 179.077 32.498 176.88 32.498H167.285V38.3574H176.88ZM223.389 47H208.691V11.9658H223.389V47ZM269.971 47H229.492V38.3574L252.661 20.6328H229.492V11.9902H269.971V20.6328L246.777 38.3574H269.971V47Z" fill="#FF6600"/>
<path d="M30.9289 56.2727C35.5578 61.3944 35.1583 69.2989 30.0365 73.9278C24.9148 78.5567 17.0103 78.1572 12.3814 73.0355C7.75247 67.9137 8.152 60.0092 13.2737 55.3803C18.3955 50.7514 26.3 51.1509 30.9289 56.2727Z" fill="#FF6600"/>
</svg>
